<?xml version="1.0" standalone="no"?>
<!DOCTYPE svg PUBLIC "-//W3C//DTD SVG 20010904//EN"
 "http://www.w3.org/TR/2001/REC-SVG-20010904/DTD/svg10.dtd">
<svg version="1.0" xmlns="http://www.w3.org/2000/svg"
 width="422.000000pt" height="1001.000000pt" viewBox="0 0 422.000000 1001.000000"
 preserveAspectRatio="xMidYMid meet">

<g transform="translate(0.000000,1001.000000) scale(0.100000,-0.100000)"
fill="white" stroke="none">
<path d="M1940 9989 c-141 -13 -436 -64 -594 -104 -211 -53 -417 -125 -611
-215 -97 -44 -218 -96 -269 -114 -103 -37 -195 -92 -227 -137 -11 -16 -28 -28
-37 -27 -29 5 -17 -80 16 -115 l27 -28 0 -299 c0 -164 2 -300 5 -303 3 -2 43
0 90 4 47 5 378 13 735 19 1345 22 1828 38 1991 66 l31 6 7 221 c4 122 11 226
17 231 5 6 9 -77 9 -222 l0 -232 145 0 c142 0 147 -1 171 -25 l25 -25 -7 -148
c-8 -181 -23 -221 -21 -57 1 96 -3 127 -16 156 -34 70 -52 72 -422 51 -121 -6
-551 -19 -955 -28 -404 -8 -814 -19 -910 -24 -96 -5 -272 -10 -391 -10 -119 0
-284 -3 -367 -7 l-150 -6 -16 -56 c-47 -170 -49 -204 -43 -936 3 -379 1 -861
-4 -1070 -4 -209 -11 -538 -14 -731 -6 -406 -20 -726 -35 -802 -6 -35 -7 -126
-1 -265 6 -130 5 -531 -1 -1037 -6 -454 -11 -1332 -12 -1951 l-1 -1126 -27
-39 c-42 -61 -50 -91 -53 -209 -2 -60 -6 -118 -10 -128 -4 -9 -4 -28 -1 -42 8
-33 67 -49 181 -47 85 1 241 -10 615 -44 91 -8 284 -19 430 -24 175 -6 309
-17 395 -30 85 -14 217 -24 385 -30 140 -5 388 -17 550 -27 398 -24 910 -25
961 -1 22 9 65 50 105 97 38 44 99 105 135 135 41 34 101 100 155 173 48 65
131 163 184 218 54 55 100 110 104 122 4 12 2 39 -3 60 -6 21 -11 55 -11 75 0
48 -16 89 -43 110 l-22 17 0 3503 c0 1932 -4 3565 -9 3641 -6 99 -13 143 -23
153 -12 12 -16 63 -18 287 -2 256 -3 274 -24 314 -11 24 -42 97 -67 165 -56
151 -103 247 -157 318 l-42 55 -3 -35 c-1 -19 6 -83 16 -141 23 -131 18 -149
-38 -149 l-40 0 0 119 c0 97 4 129 21 175 l21 55 -28 25 c-36 30 -27 43 15 22
66 -35 158 -179 240 -376 97 -232 106 -252 116 -252 18 2 23 64 10 111 -21 73
-113 320 -144 386 -44 95 -141 235 -183 266 -26 18 -67 34 -116 44 -42 9 -156
41 -252 72 -446 143 -627 178 -1040 203 -188 11 -313 11 -450 -1z m10 -99 c0
-27 3 -30 30 -30 23 0 28 -4 23 -16 -4 -10 -14 -14 -29 -11 -19 3 -24 -1 -26
-22 -4 -33 -21 -34 -28 -1 -3 16 -12 25 -24 25 -11 0 -21 6 -23 13 -3 7 5 12
21 12 21 0 26 5 26 23 0 13 3 27 7 30 14 15 23 6 23 -23z m-44 -166 l7 -29
-22 28 c-28 34 -59 35 -126 3 -88 -41 -155 -116 -155 -175 0 -21 44 -51 75
-51 21 0 55 36 55 60 0 16 -5 19 -30 14 -23 -5 -30 -3 -30 9 0 9 9 21 20 27
13 7 20 21 20 39 0 15 3 31 7 34 9 9 43 -22 43 -39 0 -10 9 -12 30 -7 23 4 30
2 30 -10 0 -8 -9 -17 -20 -20 -31 -8 -24 -33 15 -51 37 -18 46 -16 82 17 22
19 22 19 49 -2 34 -26 78 -27 104 -1 27 27 25 40 -5 40 -14 0 -25 6 -25 13 0
22 10 26 35 17 19 -7 25 -5 30 10 4 11 15 25 25 30 17 9 20 6 26 -26 3 -19 13
-38 20 -41 8 -3 14 -14 14 -25 0 -17 -5 -19 -25 -14 -21 5 -25 3 -25 -16 0
-27 27 -58 51 -58 29 0 68 22 74 41 14 44 -74 152 -155 188 -61 28 -84 26
-111 -6 l-22 -28 6 40 c4 22 7 48 7 58 0 9 7 17 15 17 8 0 15 -7 15 -15 0 -13
4 -14 20 -5 16 9 22 8 27 -5 4 -11 13 -15 28 -11 15 4 25 1 29 -10 4 -10 13
-13 26 -9 16 5 20 2 20 -14 0 -16 6 -21 25 -21 18 0 25 -5 25 -20 0 -13 7 -20
20 -20 15 0 20 -7 20 -25 0 -16 6 -25 15 -25 9 0 15 -9 15 -24 0 -13 5 -26 12
-28 7 -3 -2 -28 -26 -70 l-36 -66 -78 31 c-139 54 -359 48 -472 -15 -31 -16
-32 -18 -8 -14 14 3 33 9 42 12 12 4 16 0 16 -15 0 -12 -6 -21 -14 -21 -7 0
-26 -3 -42 -6 -27 -5 -30 -2 -48 41 -10 26 -30 60 -43 76 -20 24 -23 32 -13
44 7 8 10 24 7 35 -4 16 0 20 19 20 21 0 24 3 18 25 -5 22 -3 25 21 25 22 0
25 3 20 21 -6 19 -4 21 19 17 22 -4 26 -2 26 19 0 21 2 22 21 13 17 -10 21 -8
26 9 6 23 23 27 41 9 9 -9 12 -8 12 4 0 24 18 32 36 17 13 -11 18 -10 27 6 10
18 12 18 23 -11 7 -17 16 -44 20 -60z m39 26 c3 -5 1 -10 -4 -10 -6 0 -11 5
-11 10 0 6 2 10 4 10 3 0 8 -4 11 -10z m-8 -77 c-3 -10 -5 -2 -5 17 0 19 2 27
5 18 2 -10 2 -26 0 -35z m27 -35 c-19 -33 -27 -38 -40 -27 -11 9 -14 8 -14 -4
0 -8 -7 -20 -15 -27 -13 -11 -15 -8 -15 17 0 38 16 53 58 53 24 0 31 -4 26
-12z m16 -39 c0 -27 -2 -30 -15 -19 -11 9 -12 17 -4 31 14 27 19 24 19 -12z
m1017 -45 c70 -25 192 -77 271 -116 126 -63 143 -74 138 -92 -3 -12 -6 -37 -6
-56 l-1 -35 -23 50 c-44 96 -108 134 -387 230 -90 31 -166 59 -168 61 -17 17
70 -4 176 -42z m-1029 -70 c13 -4 22 -14 22 -25 0 -16 -8 -19 -55 -19 -47 0
-55 3 -55 18 0 10 3 22 7 25 8 9 50 9 81 1z m-118 -23 c0 -17 -33 -31 -76 -31
-20 0 -17 38 4 43 44 12 72 7 72 -12z m258 4 c6 -3 12 -11 12 -20 0 -10 -10
-15 -34 -15 -48 0 -66 9 -66 32 0 16 5 18 38 13 20 -4 43 -8 50 -10z m97 -41
c18 -13 18 -14 -11 -14 -29 0 -54 15 -54 33 0 10 38 -1 65 -19z m916 -159 c5
-28 3 -44 -7 -55 -12 -12 -14 -10 -14 20 0 66 20 64 -386 51 -443 -13 -424
-13 -424 -1 0 6 45 11 113 11 61 1 164 5 227 9 63 4 198 6 300 6 l185 -1 6
-40z m-845 3 c5 -7 2 -9 -9 -5 -17 6 -485 -11 -1177 -43 -449 -21 -537 -24
-528 -14 13 12 218 24 673 39 264 9 521 19 570 24 147 13 463 13 471 -1z m748
-69 c2 -2 1 -77 -2 -167 -3 -112 -9 -167 -18 -176 -15 -15 -291 -30 -579 -32
-322 -2 -996 -23 -1082 -34 -86 -11 -673 -2 -693 10 -7 4 -14 53 -17 121 -4
91 -2 122 10 152 l16 37 98 0 c54 0 152 7 218 15 159 20 512 35 870 36 179 1
330 7 394 15 59 8 203 14 330 15 124 1 251 5 281 9 55 8 166 8 174 -1z m673
-195 c23 -18 79 -54 124 -80 45 -27 101 -71 125 -98 l44 -48 -1 -92 c-1 -50 2
-108 6 -128 12 -63 -12 -59 -147 29 -68 44 -162 103 -209 133 -84 52 -87 55
-93 98 -10 73 -7 199 6 229 6 15 10 34 9 41 -2 14 51 -19 136 -84z m-462 -546
c7 -81 7 -26 1 -963 -19 -2589 -23 -5470 -10 -6320 4 -274 3 -419 -5 -459 -6
-32 -14 -116 -17 -185 -7 -132 -14 -151 -57 -151 -18 0 -18 4 -11 48 5 26 9
355 9 732 1 1057 14 4116 20 4575 9 649 15 2667 9 2702 -3 17 -11 33 -17 35
-7 2 -154 0 -327 -4 -173 -4 -414 -10 -535 -12 -121 -2 -283 -9 -360 -15 -125
-10 -730 -21 -1327 -25 -197 -1 -218 0 -218 15 0 18 -44 17 955 39 248 6 641
17 875 25 531 19 581 20 817 23 l191 2 7 -62z m-2800 -165 c-9 -22 -23 -740
-26 -1307 -3 -703 -13 -1191 -24 -1191 -15 0 -18 859 -4 1340 6 226 13 582 16
793 5 374 5 382 25 382 15 0 18 -4 13 -17z m2359 -209 c14 -13 16 -62 16 -380
l0 -365 -102 3 -103 3 -5 355 c-3 195 -2 360 3 365 27 33 164 47 191 19z
m-312 -311 c4 -424 4 -441 -4 -448 -4 -4 -325 -4 -713 0 l-705 7 0 348 0 348
38 13 c20 8 75 13 122 12 266 -4 831 -1 990 6 102 4 204 8 228 9 l42 2 2 -297z
m-1560 239 c7 -7 7 -83 -2 -244 -7 -128 -11 -282 -9 -341 5 -124 8 -120 -96
-115 l-60 3 -3 140 c-2 77 0 232 3 343 l7 204 32 14 c34 15 111 13 128 -4z
m2971 -117 l112 -55 -4 -323 c-1 -177 -4 -323 -6 -325 -2 -2 -18 4 -37 14 -20
11 -68 20 -121 24 -125 9 -141 23 -144 121 -7 261 -9 426 -6 507 l4 92 45 0
c34 0 72 -13 157 -55z m-1144 -651 l61 -7 0 -363 0 -364 -82 0 c-140 0 -125
-42 -130 353 -3 210 -1 351 5 365 11 24 35 27 146 16z m-292 -26 c5 -8 10
-158 12 -344 2 -316 1 -331 -18 -355 l-19 -24 -669 -3 c-367 -1 -678 0 -690 3
l-23 5 0 334 c0 314 1 335 19 357 l19 24 394 5 c823 11 965 11 975 -2z m-1553
-14 c19 -19 18 6 16 -369 -1 -187 -6 -317 -12 -329 -9 -17 -18 -18 -86 -12
-41 3 -77 8 -79 10 -2 2 -5 147 -7 322 -2 176 -6 329 -10 341 -6 17 -2 24 21
37 38 21 137 21 157 0z m2881 -108 c44 -8 101 -22 126 -31 84 -29 81 -15 77
-344 -2 -218 -6 -293 -16 -303 -17 -17 -195 -17 -244 0 -63 22 -63 25 -59 273
2 123 3 268 2 322 -2 112 -12 105 114 83z m-2911 -708 l58 -11 -6 -91 c-5 -66
-24 -515 -26 -608 0 -5 -38 -8 -85 -8 l-85 0 1 123 c0 67 4 176 8 242 5 69 4
152 -1 195 -10 84 -5 132 18 155 18 18 42 19 118 3z m1396 -1 c25 -1 72 2 105
6 106 13 99 37 103 -377 l3 -356 -713 6 c-392 4 -714 8 -716 9 -6 5 -7 581 -2
647 l5 63 40 5 c35 4 1055 2 1175 -3z m528 4 c10 -6 12 -83 11 -369 l-2 -362
-107 0 -107 0 1 370 1 370 95 0 c52 0 101 -4 108 -9z m1085 -56 c49 -7 90 -15
92 -17 2 -1 -1 -26 -6 -55 -5 -28 -8 -177 -7 -331 l3 -280 -115 -13 c-144 -16
-196 -17 -210 -3 -8 8 -8 42 1 125 7 74 9 183 4 310 -4 108 -3 217 0 243 l8
48 71 -7 c39 -4 111 -13 159 -20z m-2977 -779 c18 -14 19 -29 18 -361 -1 -283
-4 -349 -15 -356 -17 -10 -88 -11 -144 -1 l-40 7 -6 340 c-3 187 -8 346 -10
354 -5 19 31 29 112 30 42 1 72 -4 85 -13z m1006 -12 c289 -4 532 -11 540 -15
10 -6 14 -53 16 -193 3 -159 -11 -503 -20 -511 -2 -1 -169 -4 -373 -6 -387 -3
-996 9 -1015 21 -23 14 -18 673 6 711 5 8 49 10 163 5 86 -3 393 -9 683 -12z
m2087 1 c1 -2 -2 -43 -9 -92 -6 -48 -13 -182 -16 -298 -2 -115 -6 -229 -10
-252 l-5 -43 -53 0 c-28 0 -78 -7 -109 -15 -89 -23 -125 -20 -137 10 -6 16 -7
152 -3 360 l6 334 26 4 c27 5 303 -3 310 -8z m-1237 -16 l37 -10 3 -322 c2
-177 2 -334 0 -349 l-3 -28 -94 0 c-75 0 -94 3 -99 16 -3 9 -6 170 -6 359 l0
344 23 4 c27 6 88 0 139 -14z m1233 -786 c-4 -16 -9 -171 -12 -345 l-5 -317
-66 -15 c-124 -28 -235 -46 -241 -40 -7 6 -7 273 -1 526 l4 167 56 12 c63 13
214 36 249 38 21 1 23 -2 16 -26z m-3106 -19 c8 -8 8 -710 0 -719 -6 -5 -168
11 -175 18 -2 1 -4 160 -6 352 l-3 350 40 7 c44 7 134 2 144 -8z m1498 -10
l72 -6 8 -47 c10 -60 8 -527 -3 -611 l-9 -65 -310 0 c-339 0 -954 12 -1052 21
l-62 5 -6 52 c-3 29 -6 191 -8 361 l-2 309 650 -7 c358 -3 682 -9 722 -12z
m403 -21 c3 -2 6 -166 8 -364 l3 -359 -55 0 c-30 0 -77 5 -105 11 l-49 10 -8
87 c-4 48 -4 159 -2 247 3 88 2 203 -2 255 -8 105 -6 117 18 124 20 5 185 -4
192 -11z m1162 -1020 c-1 -170 -4 -322 -7 -339 -5 -27 -14 -35 -73 -62 -51
-23 -162 -62 -178 -62 -12 0 -39 669 -27 681 5 5 32 13 61 19 29 5 85 23 125
39 39 16 79 30 87 30 13 1 15 -38 12 -306z m-3062 222 c9 -11 13 -103 14 -359
l2 -345 -48 -6 c-26 -4 -66 -4 -88 0 -61 10 -64 29 -65 370 -1 160 -5 305 -9
323 l-8 32 95 0 c71 0 98 -4 107 -15z m486 -5 c109 -5 390 -11 624 -13 306 -2
431 -6 447 -15 21 -12 21 -13 19 -354 -1 -189 -5 -351 -10 -360 -11 -23 -44
-23 -501 2 -198 11 -427 20 -510 20 -190 1 -402 15 -418 28 -9 8 -12 91 -10
348 1 185 5 339 7 342 12 11 74 21 112 17 22 -2 130 -9 240 -15z m1363 -41
c27 -6 52 -16 55 -24 3 -9 -9 -663 -14 -692 0 -2 -42 -3 -94 -3 l-95 0 -6 43
c-4 32 -1 577 4 655 2 29 69 39 150 21z m1194 -686 c11 -22 12 -88 8 -323 l-6
-295 -77 -43 c-73 -41 -157 -65 -159 -46 0 5 -2 113 -4 239 -2 127 -7 265 -10
307 -6 74 -5 77 19 93 18 12 196 91 213 95 1 0 9 -12 16 -27z m-3045 -87 c13
-8 18 -581 6 -670 l-7 -47 -90 3 -91 3 2 245 c2 222 -5 360 -23 433 -6 22 -3
29 16 37 26 11 168 8 187 -4z m762 -21 c195 -9 454 -19 575 -23 l220 -7 8
-210 c10 -243 2 -465 -18 -492 -16 -21 22 -21 -515 -5 -471 13 -858 31 -883
40 -17 7 -18 31 -21 360 l-3 352 141 0 c78 0 301 -7 496 -15z m1086 -40 l49
-14 -1 -323 c-1 -178 -4 -335 -9 -351 -9 -35 -36 -41 -133 -33 -42 4 -77 8
-77 9 0 1 1 159 3 350 l4 349 31 13 c41 18 72 18 133 0z m1200 -626 c17 -19
19 -36 16 -203 -2 -99 2 -224 8 -276 l11 -95 -29 -25 c-17 -14 -55 -47 -86
-73 -68 -59 -105 -78 -133 -71 -20 6 -21 12 -28 298 -8 335 -6 350 66 387 21
10 60 33 86 49 56 36 64 36 89 9z m-3070 -152 c1 -1 5 -159 9 -351 l8 -348
-76 4 c-42 2 -78 6 -81 8 -3 3 -6 155 -7 338 -1 267 1 335 12 348 11 13 25 15
73 10 33 -3 60 -7 62 -9z m524 -10 c156 -26 497 -47 754 -47 171 0 248 -4 265
-13 l24 -12 3 -319 c5 -388 9 -372 -100 -362 -152 14 -417 26 -794 36 -217 5
-423 13 -458 16 l-64 7 0 256 c0 141 -3 300 -7 353 l-6 97 39 4 c69 8 246 0
344 -16z m1371 -58 c14 -7 17 -36 22 -176 4 -92 3 -253 -1 -358 -6 -175 -8
-190 -26 -193 -25 -5 -139 7 -154 17 -24 14 -33 123 -35 419 -2 294 -2 301 18
305 29 6 157 -4 176 -14z m-2614 -1586 c22 -14 59 -19 188 -24 124 -5 183 -13
265 -33 81 -21 148 -29 290 -37 102 -5 241 -16 311 -24 69 -8 173 -15 232 -15
58 0 152 -5 207 -11 78 -9 121 -9 183 0 76 11 90 10 187 -13 84 -19 144 -26
300 -31 107 -3 321 -15 475 -26 154 -10 357 -22 450 -25 183 -7 238 -16 173
-29 -20 -4 -146 0 -280 9 -134 9 -380 23 -548 31 -566 28 -1657 101 -1995 134
-110 11 -249 22 -310 25 -98 5 -112 9 -128 29 -24 30 -39 57 -32 57 3 0 18 -8
32 -17z"/>
<path d="M2842 9165 c-29 -7 -56 -15 -59 -19 -10 -10 -9 -253 0 -263 14 -13
140 -4 156 12 12 11 7 14 -31 20 -25 4 -56 5 -69 3 -21 -3 -24 1 -27 33 -4 49
17 64 96 68 6 1 12 6 12 11 0 6 -16 10 -36 10 -50 0 -74 15 -74 48 0 41 17 52
78 52 36 0 52 4 50 12 -7 20 -42 25 -96 13z"/>
<path d="M2697 9154 c-4 -4 -7 -39 -7 -78 0 -39 -5 -78 -10 -86 -9 -13 -13
-11 -31 9 -11 14 -36 52 -56 85 -43 75 -37 69 -62 61 -20 -6 -21 -14 -21 -136
0 -108 2 -129 15 -129 12 0 15 17 15 89 0 50 4 92 9 96 5 3 26 -23 47 -56 39
-66 91 -129 104 -129 12 0 24 260 13 271 -5 5 -12 6 -16 3z"/>
<path d="M2105 9085 l7 -65 -55 0 c-59 0 -67 7 -67 60 0 38 -9 60 -26 60 -11
0 -14 -27 -14 -139 0 -77 4 -142 9 -145 5 -4 17 -3 26 1 15 5 17 15 12 70 l-6
63 66 0 65 0 -6 -53 c-8 -58 -1 -87 20 -87 17 0 23 40 26 177 3 105 2 112 -17
117 -45 12 -47 10 -40 -59z"/>
<path d="M2280 9137 c-35 -17 -70 -91 -70 -147 0 -54 29 -106 66 -120 126 -48
223 73 167 211 -24 61 -100 87 -163 56z m62 -38 c30 -8 42 -19 58 -51 26 -54
25 -70 -6 -107 -19 -23 -34 -31 -58 -31 -41 0 -61 22 -77 80 -10 38 -9 51 4
83 17 40 23 42 79 26z"/>
<path d="M1720 9033 c0 -55 -3 -121 -6 -147 -7 -45 -6 -46 20 -46 25 0 26 2
26 55 0 52 1 55 25 55 52 0 125 58 125 99 0 10 -14 30 -30 46 -26 25 -40 30
-95 33 l-65 4 0 -99z m112 60 c26 -24 23 -75 -7 -103 -21 -20 -27 -21 -41 -9
-25 21 -35 56 -23 86 17 45 41 54 71 26z"/>
<path d="M1470 8980 l0 -141 83 3 c97 4 111 22 20 26 l-63 3 0 49 c0 50 0 50
33 50 17 0 38 4 46 9 23 15 2 31 -39 31 -35 0 -39 3 -45 30 -9 40 0 50 43 50
46 0 82 10 82 21 0 5 -36 9 -80 9 l-80 0 0 -140z"/>
<path d="M1024 9073 c-10 -50 -10 -225 0 -241 9 -15 134 -16 156 -2 12 8 10
10 -10 11 -14 1 -34 1 -45 0 -11 -1 -30 1 -42 4 -20 5 -23 12 -23 59 l0 54 55
7 c67 8 63 25 -6 25 l-50 0 3 43 3 42 59 0 c35 0 61 5 63 11 5 14 -42 24 -108
24 -48 0 -48 0 -55 -37z"/>
<path d="M1266 9079 c-3 -17 -6 -83 -6 -145 l0 -114 38 1 c59 2 97 13 100 29
2 12 -7 14 -48 12 l-50 -4 0 104 c0 104 -6 148 -20 148 -4 0 -10 -14 -14 -31z"/>
<path d="M747 9093 c-18 -17 -5 -33 28 -33 49 0 57 -21 49 -133 -5 -70 -4 -96
5 -102 31 -18 38 21 41 208 0 25 3 27 45 27 66 0 61 25 -7 34 -69 8 -153 8
-161 -1z"/>
</g>
</svg>
